<?xml version="1.0" encoding="UTF-8"?>
<svg id="_圖層_1" data-name="圖層_1" xmlns="http://www.w3.org/2000/svg" version="1.1" viewBox="0 0 32 32">
  <!-- Generator: Adobe Illustrator 29.8.1, SVG Export Plug-In . SVG Version: 2.1.1 Build 2)  -->
  <defs>
    <style>
      .st0 {
        fill: #1a2f1a;
      }

      .st1 {
        fill: #00ff41;
      }
    </style>
  </defs>
  <rect class="st0" y="0" width="32" height="32"/>
  <circle class="st1" cx="16" cy="16" r="3.1"/>
  <path class="st1" d="M24.7,15c-.1-1.4-.6-2.6-1.3-3.7-.5-.8-1.1-1.4-1.8-2-1.5-1.2-3.4-2-5.5-2s-4,.8-5.5,2c-.7.6-1.3,1.2-1.8,2-.7,1.1-1.2,2.4-1.3,3.7,0,.3,0,.7,0,1s0,.7,0,1c.1,1.4.6,2.6,1.3,3.7.5.8,1.1,1.4,1.8,2,1.5,1.2,3.4,2,5.5,2s4-.8,5.5-2c.7-.6,1.3-1.2,1.8-2,.7-1.1,1.2-2.4,1.3-3.7,0-.3,0-.7,0-1s0-.7,0-1ZM20,20.7c-1.1.9-2.5,1.5-4,1.5s-3-.6-4-1.5c-1.1-.9-1.9-2.2-2.1-3.7,0-.3,0-.7,0-1s0-.7,0-1c.2-1.5,1-2.8,2.1-3.7,1.1-.9,2.5-1.5,4-1.5s3,.6,4,1.5c1.1.9,1.9,2.2,2.1,3.7,0,.3,0,.7,0,1s0,.7,0,1c-.2,1.5-1,2.8-2.1,3.7Z"/>
  <path class="st1" d="M27.1,10.3c0,.5-.5,1-1,1h-6c-1.1-.9-2.5-1.5-4-1.5s-3,.6-4,1.5h-6.5c-.5,0-1-.5-1-1s.5-1,1-1h20.6c.5,0,1,.4,1,1Z"/>
  <g>
    <path class="st1" d="M9.9,15c0,.3,0,.7,0,1s0,.7,0,1H1.9c-.6,0-1-.4-1-1s.4-1,1-1h8Z"/>
    <path class="st1" d="M30.7,16c0,.6-.5,1-1,1h-7.5c0-.3,0-.7,0-1s0-.7,0-1h7.5c.5,0,1,.5,1,1Z"/>
  </g>
  <path class="st1" d="M27.1,21.7c0,.5-.5,1-1,1H5.4c-.5,0-1-.5-1-1s.5-1,1-1h6.5c1.1.9,2.5,1.5,4,1.5s3-.6,4-1.5h6c.5,0,1,.5,1,1Z"/>
</svg>