<?xml version="1.0" encoding="UTF-8"?>
<svg id="_圖層_1" data-name="圖層_1" xmlns="http://www.w3.org/2000/svg" version="1.1" viewBox="0 0 1024 1024">
  <!-- Generator: Adobe Illustrator 29.8.1, SVG Export Plug-In . SVG Version: 2.1.1 Build 2)  -->
  <g id="SenvZ6.tif">
    <g>
      <polygon points="459.13 417.1 513.05 270.79 564.36 415.92 723.76 419.7 595.13 508.7 644.09 658.4 511.8 568.7 379.49 655.81 427.78 511.15 299.83 417.1 459.13 417.1"/>
      <path d="M818.12,779.99H205.46c-32.09,0-58.2-26.08-58.2-58.14v-439.29c0-32.06,26.11-58.14,58.2-58.14h612.65c32.09,0,58.2,26.08,58.2,58.14v439.29c0,32.06-26.11,58.14-58.2,58.14ZM205.46,237.35c-24.96,0-45.26,20.29-45.26,45.22v439.29c0,24.93,20.31,45.22,45.26,45.22h612.65c24.96,0,45.26-20.29,45.26-45.22v-439.29c0-24.94-20.31-45.22-45.26-45.22H205.46Z"/>
      <path d="M966.2,335.53v-99.65c0-76.59-62.36-138.89-139.02-138.89h-102.31l-24.04-27.62h-378.09l-24.04,27.62h-100.46c-76.66,0-139.02,62.3-139.02,138.89v99.65l-26.51,23.02v287.31l26.51,23.02v117.59c0,76.59,62.36,138.89,139.02,138.89h628.93c76.66,0,139.02-62.3,139.02-138.89v-117.59l26.51-23.02v-287.31l-26.51-23.02ZM315.84,96.99l12.79-14.7h366.32l12.79,14.7,1.82,2.09h-395.55l1.82-2.09ZM45.65,639.97v-275.52l13.58-11.8v299.11l-13.58-11.8ZM315.25,905.98l39.53-52.33h314.02l39.53,52.33h-393.09ZM946.81,786.47c0,65.89-53.67,119.51-119.62,119.51h-102.66l-49.28-65.25h-326.9l-49.28,65.25h-100.81c-65.95,0-119.62-53.62-119.62-119.51V235.88c0-65.89,53.67-119.51,119.62-119.51h628.93c65.95,0,119.62,53.62,119.62,119.51v550.59ZM979.78,639.97l-13.58,11.8v-299.11l13.58,11.8v275.52Z"/>
    </g>
  </g>
</svg>